<?xml version="1.0" encoding="utf-8"?>
<!-- Generator: Adobe Illustrator 26.0.0, SVG Export Plug-In . SVG Version: 6.00 Build 0)  -->
<svg version="1.1" id="Capa_1" xmlns="http://www.w3.org/2000/svg" xmlns:xlink="http://www.w3.org/1999/xlink" x="0px" y="0px"
	 viewBox="0 0 847 571" style="enable-background:new 0 0 847 571;" xml:space="preserve">
<style type="text/css">
	.st0{fill:#FFFFFF;}
	.st1{clip-path:url(#SVGID_00000043458468827045392210000002731672367427600568_);fill:#FFFFFF;}
</style>
<g>
	<path class="st0" d="M1262.9-289.1v-0.2c0-21.1,15.9-38.4,38.7-38.4c11.1,0,18.7,3,24.8,7.5c1.7,1.3,3.2,3.6,3.2,6.5
		c0,4.5-3.6,8-8.1,8c-2.2,0-3.7-0.8-4.9-1.6c-4.6-3.4-9.3-5.3-15.2-5.3c-12.5,0-21.5,10.4-21.5,23.1v0.2c0,12.7,8.8,23.3,21.5,23.3
		c6.9,0,11.5-2.1,16.1-5.8c1.3-1.1,3-1.8,4.9-1.8c4.1,0,7.6,3.4,7.6,7.5c0,2.5-1.3,4.6-2.8,5.8c-6.7,5.8-14.5,9.3-26.4,9.3
		C1279.1-250.9,1262.9-267.7,1262.9-289.1z"/>
	<path class="st0" d="M1338.3-268.5v-0.2c0-12.4,9.4-18.1,22.9-18.1c5.7,0,9.9,1,13.9,2.3v-1c0-6.7-4.1-10.4-12.2-10.4
		c-4.5,0-8.1,0.6-11.1,1.6c-1,0.3-1.6,0.4-2.3,0.4c-3.7,0-6.7-2.9-6.7-6.6c0-2.9,1.8-5.3,4.4-6.3c5.1-1.9,10.6-3,18.1-3
		c8.8,0,15.2,2.3,19.2,6.4c4.2,4.2,6.2,10.5,6.2,18.1v25.9c0,4.4-3.5,7.7-7.9,7.7c-4.7,0-7.7-3.3-7.7-6.7v-0.1
		c-3.9,4.4-9.3,7.2-17.2,7.2C1347.1-251.1,1338.3-257.2,1338.3-268.5z M1375.3-272.2v-2.9c-2.8-1.3-6.4-2.1-10.3-2.1
		c-6.9,0-11.1,2.8-11.1,7.9v0.2c0,4.4,3.6,6.9,8.8,6.9C1370.3-262.2,1375.3-266.4,1375.3-272.2z"/>
	<path class="st0" d="M1403.5-301.6c0-4.5,3.6-8.1,8.1-8.1s8.1,3.6,8.1,8.1v0.6c3.7-4.8,8.6-9.1,16.8-9.1c7.4,0,13.1,3.3,16,9
		c5-5.8,10.9-9,18.7-9c12,0,19.2,7.2,19.2,20.9v29.6c0,4.5-3.6,8.1-8.1,8.1s-8.1-3.6-8.1-8.1v-24.3c0-7.6-3.4-11.6-9.4-11.6
		s-9.8,3.9-9.8,11.6v24.3c0,4.5-3.6,8.1-8.1,8.1s-8.1-3.6-8.1-8.1v-24.3c0-7.6-3.4-11.6-9.4-11.6s-9.8,3.9-9.8,11.6v24.3
		c0,4.5-3.6,8.1-8.1,8.1s-8.1-3.6-8.1-8.1v-42H1403.5z"/>
	<path class="st0" d="M1503.2-301.6c0-4.5,3.6-8.1,8.1-8.1s8.1,3.6,8.1,8.1v0.7c3.9-5.3,9.3-9.2,17.7-9.2
		c13.3,0,25.9,10.4,25.9,29.4v0.2c0,19-12.4,29.4-25.9,29.4c-8.6,0-13.9-3.9-17.7-8.5v17c0,4.5-3.6,8.1-8.1,8.1s-8.1-3.6-8.1-8.1
		V-301.6L1503.2-301.6z M1546.8-280.5v-0.2c0-9.4-6.4-15.7-13.9-15.7s-13.8,6.3-13.8,15.7v0.2c0,9.4,6.3,15.7,13.8,15.7
		S1546.8-270.9,1546.8-280.5z"/>
	<path class="st0" d="M1570.4-268.5v-0.2c0-12.4,9.4-18.1,22.9-18.1c5.7,0,9.9,1,13.9,2.3v-1c0-6.7-4.1-10.4-12.2-10.4
		c-4.5,0-8.1,0.6-11.1,1.6c-1,0.3-1.6,0.4-2.3,0.4c-3.7,0-6.7-2.9-6.7-6.6c0-2.9,1.8-5.3,4.4-6.3c5.1-1.9,10.6-3,18.1-3
		c8.8,0,15.2,2.3,19.2,6.4c4.2,4.2,6.2,10.5,6.2,18.1v25.9c0,4.4-3.5,7.7-7.9,7.7c-4.7,0-7.7-3.3-7.7-6.7v-0.1
		c-3.9,4.4-9.3,7.2-17.2,7.2C1579.2-251.1,1570.4-257.2,1570.4-268.5z M1607.4-272.2v-2.9c-2.8-1.3-6.4-2.1-10.3-2.1
		c-6.9,0-11.1,2.8-11.1,7.9v0.2c0,4.4,3.6,6.9,8.8,6.9C1602.3-262.2,1607.4-266.4,1607.4-272.2z"/>
	<path class="st0" d="M1635.5-301.6c0-4.5,3.6-8.1,8.1-8.1s8.1,3.6,8.1,8.1v0.6c3.7-4.8,8.5-9.1,16.7-9.1c12.2,0,19.3,8.1,19.3,21.1
		v29.4c0,4.5-3.6,8.1-8.1,8.1s-8.1-3.6-8.1-8.1v-24.3c0-7.6-3.6-11.6-9.8-11.6c-6.2,0-10.1,3.9-10.1,11.6v24.3
		c0,4.5-3.6,8.1-8.1,8.1s-8.1-3.6-8.1-8.1L1635.5-301.6L1635.5-301.6z M1645.7-313.9c-2.5,0-4.8-2.1-4.8-4.4c0-0.7,0.2-2,0.5-2.9
		c2.3-6.2,5.4-10.4,11.9-10.4c6.6,0,12.1,4.1,15.9,4.1c2.5,0,3.7-1,5-3.1c0.8-1.4,2.2-2.4,4.1-2.4c2.5,0,4.8,2.1,4.8,4.4
		c0,0.7-0.2,2-0.5,2.9c-2.3,6.2-5.4,10.4-11.9,10.4c-6.6,0-12.1-4.1-15.9-4.1c-2.5,0-3.7,1-5,3.1
		C1649-315,1647.6-313.9,1645.7-313.9z"/>
	<path class="st0" d="M1697.2-268.5v-0.2c0-12.4,9.4-18.1,22.9-18.1c5.7,0,9.9,1,13.9,2.3v-1c0-6.7-4.1-10.4-12.2-10.4
		c-4.5,0-8.1,0.6-11.1,1.6c-1,0.3-1.6,0.4-2.3,0.4c-3.7,0-6.7-2.9-6.7-6.6c0-2.9,1.8-5.3,4.4-6.3c5.1-1.9,10.6-3,18.1-3
		c8.8,0,15.2,2.3,19.2,6.4c4.2,4.2,6.2,10.5,6.2,18.1v25.9c0,4.4-3.5,7.7-7.9,7.7c-4.7,0-7.7-3.3-7.7-6.7v-0.1
		c-3.9,4.4-9.3,7.2-17.2,7.2C1706-251.1,1697.2-257.2,1697.2-268.5z M1734.2-272.2v-2.9c-2.8-1.3-6.4-2.1-10.3-2.1
		c-6.9,0-11.1,2.8-11.1,7.9v0.2c0,4.4,3.6,6.9,8.8,6.9C1729.1-262.2,1734.2-266.4,1734.2-272.2z"/>
	<path class="st0" d="M1760.8-257.6c-1.7-1.1-3.1-3-3.1-5.5c0-3.6,2.8-6.4,6.4-6.4c1.2,0,2.3,0.3,3.2,0.8c5.4,3.4,10.8,5.1,15.4,5.1
		c4.7,0,6.8-1.7,6.8-4.2v-0.2c0-3.5-5.5-4.7-11.8-6.6c-8-2.3-17-6-17-17.1v-0.1c0-11.6,9.3-18,20.8-18c5.9,0,12.1,1.6,17.6,4.4
		c2.3,1.2,3.8,3.3,3.8,6c0,3.6-2.9,6.4-6.5,6.4c-1.2,0-1.9-0.2-3-0.7c-4.6-2.2-8.9-3.6-12.3-3.6c-3.9,0-5.9,1.7-5.9,3.9v0.2
		c0,3.2,5.4,4.7,11.6,6.8c8,2.7,17.2,6.5,17.2,16.9v0.2c0,12.6-9.4,18.4-21.8,18.4C1775.3-251.1,1767.7-253.1,1760.8-257.6z"/>
	<path class="st0" d="M1846.9-268.1l21.1-17.3c9.2-7.5,12.8-11.7,12.8-17.8c0-6.3-4.1-9.7-10-9.7c-4.7,0-8,2-12.1,6.5
		c-1.1,1.2-3,2.3-5.5,2.3c-4.1,0-7.4-3.3-7.4-7.4c0-1.8,0.7-3.7,1.9-5.1c5.9-6.9,12.9-10.9,24.2-10.9c15.4,0,25.6,9,25.6,22.9v0.2
		c0,12.4-6.4,18.6-19.5,28.8l-12.1,9.3h25.9c3.9,0,7.1,3.2,7.1,7.1c0,3.9-3.2,7-7.1,7h-40.3c-5.1,0-8.8-2.9-8.8-7.7
		C1842.6-263.1,1844.1-265.8,1846.9-268.1z"/>
	<path class="st0" d="M1908.9-289.1v-0.2c0-21.5,13.4-38.4,33.1-38.4c19.6,0,32.9,16.7,32.9,38.2v0.2c0,21.5-13.3,38.4-33.1,38.4
		C1921.9-250.9,1908.9-267.5,1908.9-289.1z M1958.1-289.1v-0.2c0-13.5-6.6-23.7-16.3-23.7c-9.7,0-16.1,9.9-16.1,23.5v0.2
		c0,13.6,6.5,23.7,16.3,23.7S1958.1-275.6,1958.1-289.1z"/>
	<path class="st0" d="M1997.9-310.9l-5.7,1.5c-0.8,0.2-2,0.4-2.9,0.4c-3.8,0-7.1-3.2-7.1-7c0-3.3,2.1-6,5.4-7l10.5-3.1
		c3.1-0.8,5.4-1.4,7.6-1.4h0.2c4.5,0,8.1,3.6,8.1,8.1v59.8c0,4.5-3.6,8.1-8.1,8.1s-8.1-3.6-8.1-8.1L1997.9-310.9L1997.9-310.9z"/>
	<path class="st0" d="M2035.1-256.2c-2.2-1.4-3.8-3.7-3.8-6.7c0-4.2,3.5-7.4,7.7-7.4c1.6,0,3,0.5,4.2,1.3c3.8,2.2,7.2,3.3,11.9,3.3
		c9.1,0,14-6.9,15.1-16.9c-3.6,3.1-8.6,5.1-15.1,5.1c-16.1,0-26.5-8.9-26.5-24v-0.2c0-15,11.6-26,28.3-26c10,0,15.8,2.4,21.4,8.1
		c5.3,5.3,8.8,13.4,8.8,28v0.2c0,24.1-11.4,40.5-32.5,40.5C2046.5-250.9,2040.7-252.8,2035.1-256.2z M2070.6-302.1v-0.2
		c0-6.6-4.9-11.4-13.1-11.4c-8.1,0-12.6,4.7-12.6,11.2v0.2c0,6.6,4.9,11.1,12.9,11.1C2065.9-291.1,2070.6-295.8,2070.6-302.1z"/>
</g>
<g>
	<g>
		<path id="SVGID_3_" class="st0" d="M601.9,14.2L601.9,14.2c-31.9,0-59.2,18.2-72.5,44.8L420.2,269.6c-12.2-21.6-31.7-38.7-55-47.8
			c26.1-18.9,43.2-49.8,43.2-84.5c0-40.4-22.9-75.2-56.4-92.5c-29.5-15.6-63.2-24.3-98.8-24.3H90.1c-33.6,0-60.6,27.1-60.6,60.6
			v303.6c0,33.5,27.1,60.6,60.6,60.6H149h117.5c34,0,66.4-7.1,95.8-19.6l11.2-5.4c0.6-0.3,1.2-0.6,1.8-0.9
			c10.7,17.6,29.8,29.4,51.9,29.4c24.5,0,45.7-14.5,55.2-35.5c4.7-11.1,15.5-18.9,28.1-19.6h182.8c12.7,0.6,23.4,8.5,28.1,19.6
			c9.5,21,30.7,35.5,55.2,35.5c33.5,0,60.6-27.1,60.6-60.5c0-10.9-2.8-21-7.9-29.8L674.5,58.9C661.1,32.3,633.7,14.2,601.9,14.2
			L601.9,14.2z"/>
	</g>
	<g>
		<g>
			<g>
				<defs>
					<path id="SVGID_1_" d="M601.9,14.2L601.9,14.2c-31.9,0-59.2,18.2-72.5,44.8L420.2,269.6c-12.2-21.6-31.7-38.7-55-47.8
						c26.1-18.9,43.2-49.8,43.2-84.5c0-40.4-22.9-75.2-56.4-92.5c-29.5-15.6-63.2-24.3-98.8-24.3H90.1c-33.6,0-60.6,27.1-60.6,60.6
						v303.6c0,33.5,27.1,60.6,60.6,60.6H149h117.5c34,0,66.4-7.1,95.8-19.6l11.2-5.4c0.6-0.3,1.2-0.6,1.8-0.9
						c10.7,17.6,29.8,29.4,51.9,29.4c24.5,0,45.7-14.5,55.2-35.5c4.7-11.1,15.5-18.9,28.1-19.6h182.8c12.7,0.6,23.4,8.5,28.1,19.6
						c9.5,21,30.7,35.5,55.2,35.5c33.5,0,60.6-27.1,60.6-60.5c0-10.9-2.8-21-7.9-29.8L674.5,58.9C661.1,32.3,633.7,14.2,601.9,14.2
						L601.9,14.2z"/>
				</defs>
				<clipPath id="SVGID_00000084528052830058615510000008333974864260967075_">
					<use xlink:href="#SVGID_1_"  style="overflow:visible;"/>
				</clipPath>
				
					<rect x="29.4" y="14.2" style="clip-path:url(#SVGID_00000084528052830058615510000008333974864260967075_);fill:#FFFFFF;" width="807.9" height="434.5"/>
			</g>
		</g>
	</g>
</g>
<g>
	<path class="st0" d="M15.2,525.2V525c0-20.1,15.1-36.5,36.8-36.5c10.6,0,17.8,2.8,23.6,7.2c1.6,1.2,3,3.4,3,6.2
		c0,4.2-3.4,7.6-7.7,7.6c-2.1,0-3.5-0.8-4.6-1.5c-4.3-3.2-8.9-5-14.4-5c-11.9,0-20.5,9.9-20.5,22v0.2c0,12.1,8.4,22.2,20.5,22.2
		c6.6,0,10.9-2,15.3-5.6c1.2-1,2.8-1.7,4.6-1.7c3.9,0,7.3,3.2,7.3,7.2c0,2.4-1.2,4.3-2.6,5.6c-6.4,5.6-13.8,8.9-25.1,8.9
		C30.6,561.6,15.2,545.5,15.2,525.2z"/>
	<path class="st0" d="M88,544.8v-0.2c0-11.8,9-17.3,21.8-17.3c5.5,0,9.4,0.9,13.2,2.2v-0.9c0-6.4-3.9-9.9-11.6-9.9
		c-4.2,0-7.7,0.6-10.6,1.5c-0.9,0.3-1.5,0.4-2.2,0.4c-3.5,0-6.4-2.7-6.4-6.3c0-2.7,1.7-5,4.1-6c4.8-1.8,10.1-2.8,17.3-2.8
		c8.4,0,14.4,2.2,18.3,6.1c4,4,5.9,10,5.9,17.3v24.7c0,4.1-3.3,7.4-7.5,7.4c-4.4,0-7.4-3.1-7.4-6.4v-0.1c-3.7,4.1-8.9,6.9-16.4,6.9
		C96.4,561.4,88,555.5,88,544.8z M123.2,541.3v-2.7c-2.6-1.2-6.1-2-9.8-2c-6.6,0-10.6,2.6-10.6,7.5v0.2c0,4.1,3.4,6.6,8.4,6.6
		C118.4,550.8,123.2,546.8,123.2,541.3z"/>
	<path class="st0" d="M151,513.3c0-4.2,3.4-7.7,7.7-7.7s7.7,3.4,7.7,7.7v0.6c3.5-4.5,8.2-8.7,16-8.7c7.1,0,12.4,3.1,15.2,8.6
		c4.7-5.6,10.4-8.6,17.8-8.6c11.4,0,18.3,6.9,18.3,19.9v28.2c0,4.2-3.4,7.7-7.7,7.7c-4.2,0-7.7-3.4-7.7-7.7v-23.1c0-7.3-3.2-11-9-11
		s-9.3,3.7-9.3,11v23.1c0,4.2-3.4,7.7-7.7,7.7c-4.2,0-7.7-3.4-7.7-7.7v-23.1c0-7.3-3.2-11-9-11s-9.3,3.7-9.3,11v23.1
		c0,4.2-3.4,7.7-7.7,7.7s-7.7-3.4-7.7-7.7L151,513.3L151,513.3z"/>
	<path class="st0" d="M246.9,513.3c0-4.2,3.4-7.7,7.7-7.7s7.7,3.4,7.7,7.7v0.7c3.7-5,8.9-8.8,16.9-8.8c12.6,0,24.6,9.9,24.6,28v0.2
		c0,18.1-11.8,28-24.6,28c-8.2,0-13.2-3.7-16.9-8.1v16.2c0,4.2-3.4,7.7-7.7,7.7s-7.7-3.4-7.7-7.7V513.3z M288.4,533.4v-0.2
		c0-9-6.1-14.9-13.2-14.9s-13.1,6-13.1,14.9v0.2c0,9,6,14.9,13.1,14.9S288.4,542.5,288.4,533.4z"/>
	<path class="st0" d="M311.8,544.8v-0.2c0-11.8,9-17.3,21.8-17.3c5.5,0,9.4,0.9,13.2,2.2v-0.9c0-6.4-3.9-9.9-11.6-9.9
		c-4.2,0-7.7,0.6-10.6,1.5c-0.9,0.3-1.5,0.4-2.2,0.4c-3.5,0-6.4-2.7-6.4-6.3c0-2.7,1.7-5,4.1-6c4.8-1.8,10.1-2.8,17.3-2.8
		c8.4,0,14.4,2.2,18.3,6.1c4,4,5.9,10,5.9,17.3v24.7c0,4.1-3.3,7.4-7.5,7.4c-4.4,0-7.4-3.1-7.4-6.4v-0.1c-3.7,4.1-8.9,6.9-16.4,6.9
		C320.2,561.4,311.8,555.5,311.8,544.8z M347.1,541.3v-2.7c-2.6-1.2-6.1-2-9.8-2c-6.6,0-10.6,2.6-10.6,7.5v0.2
		c0,4.1,3.4,6.6,8.4,6.6C342.2,550.8,347.1,546.8,347.1,541.3z"/>
	<path class="st0" d="M374.8,513.3c0-4.2,3.4-7.7,7.7-7.7s7.7,3.4,7.7,7.7v0.6c3.5-4.5,8.1-8.7,15.8-8.7c11.6,0,18.4,7.7,18.4,20.1
		v28c0,4.2-3.4,7.7-7.7,7.7c-4.2,0-7.7-3.4-7.7-7.7v-23.1c0-7.3-3.4-11-9.3-11s-9.6,3.7-9.6,11v23.1c0,4.2-3.4,7.7-7.7,7.7
		s-7.7-3.4-7.7-7.7v-40H374.8L374.8,513.3z M384.5,501.6c-2.4,0-4.5-2-4.5-4.1c0-0.7,0.2-1.9,0.5-2.7c2.2-5.9,5.1-9.9,11.3-9.9
		c6.3,0,11.5,3.9,15.1,3.9c2.4,0,3.5-0.9,4.7-2.9c0.8-1.3,2.1-2.3,3.9-2.3c2.4,0,4.5,2,4.5,4.1c0,0.7-0.2,1.9-0.5,2.7
		c-2.2,5.9-5.1,9.9-11.3,9.9c-6.3,0-11.5-3.9-15.1-3.9c-2.4,0-3.5,0.9-4.7,2.9C387.6,500.6,386.3,501.6,384.5,501.6z"/>
	<path class="st0" d="M434.5,544.8v-0.2c0-11.8,9-17.3,21.8-17.3c5.5,0,9.4,0.9,13.2,2.2v-0.9c0-6.4-3.9-9.9-11.6-9.9
		c-4.2,0-7.7,0.6-10.6,1.5c-0.9,0.3-1.5,0.4-2.2,0.4c-3.5,0-6.4-2.7-6.4-6.3c0-2.7,1.7-5,4.1-6c4.8-1.8,10.1-2.8,17.3-2.8
		c8.4,0,14.4,2.2,18.3,6.1c4,4,5.9,10,5.9,17.3v24.7c0,4.1-3.3,7.4-7.5,7.4c-4.4,0-7.4-3.1-7.4-6.4v-0.1c-3.7,4.1-8.9,6.9-16.4,6.9
		C442.9,561.4,434.5,555.5,434.5,544.8z M469.7,541.3v-2.7c-2.6-1.2-6.1-2-9.8-2c-6.6,0-10.6,2.6-10.6,7.5v0.2
		c0,4.1,3.4,6.6,8.4,6.6C464.9,550.8,469.7,546.8,469.7,541.3z"/>
	<path class="st0" d="M496.1,555.2c-1.6-1-2.9-2.8-2.9-5.3c0-3.4,2.6-6.1,6.1-6.1c1.1,0,2.2,0.3,3,0.8c5.1,3.2,10.3,4.8,14.6,4.8
		c4.4,0,6.5-1.6,6.5-4v-0.2c0-3.3-5.2-4.4-11.2-6.3c-7.6-2.2-16.2-5.8-16.2-16.3l0,0c0-11,8.9-17.2,19.8-17.2
		c5.7,0,11.5,1.5,16.8,4.1c2.2,1.1,3.6,3.1,3.6,5.8c0,3.4-2.7,6.1-6.2,6.1c-1.1,0-1.8-0.2-2.8-0.7c-4.3-2.1-8.5-3.4-11.7-3.4
		c-3.7,0-5.7,1.6-5.7,3.7v0.2c0,3,5.1,4.4,11,6.5c7.6,2.5,16.4,6.2,16.4,16.1v0.2c0,12-9,17.5-20.7,17.5
		C509.8,561.4,502.6,559.5,496.1,555.2z"/>
	<path class="st0" d="M580,545.2l20.1-16.5c8.8-7.2,12.2-11.1,12.2-17c0-6-3.9-9.2-9.5-9.2c-4.4,0-7.6,1.9-11.5,6.2
		c-1,1.1-2.8,2.2-5.2,2.2c-3.9,0-7.1-3.1-7.1-7.1c0-1.7,0.7-3.5,1.8-4.8c5.7-6.6,12.3-10.4,23-10.4c14.6,0,24.3,8.6,24.3,21.8v0.2
		c0,11.8-6.1,17.7-18.6,27.4l-11.5,8.9h24.6c3.7,0,6.8,3,6.8,6.8s-3,6.7-6.8,6.7h-38.4c-4.8,0-8.4-2.7-8.4-7.4
		C575.9,550,577.3,547.4,580,545.2z"/>
	<path class="st0" d="M639.9,525.2V525c0-20.5,12.7-36.5,31.5-36.5c18.7,0,31.3,15.8,31.3,36.3v0.2c0,20.5-12.6,36.5-31.5,36.5
		C652.3,561.6,639.9,545.7,639.9,525.2z M686.8,525.2V525c0-12.8-6.3-22.5-15.5-22.5c-9.3,0-15.3,9.4-15.3,22.3v0.2
		c0,12.9,6.2,22.5,15.5,22.5S686.8,538.1,686.8,525.2z"/>
	<path class="st0" d="M715.5,545.2l20.1-16.5c8.8-7.2,12.2-11.1,12.2-17c0-6-3.9-9.2-9.5-9.2c-4.4,0-7.6,1.9-11.5,6.2
		c-1,1.1-2.8,2.2-5.2,2.2c-3.9,0-7.1-3.1-7.1-7.1c0-1.7,0.7-3.5,1.8-4.8c5.7-6.6,12.3-10.4,23-10.4c14.6,0,24.3,8.6,24.3,21.8v0.2
		c0,11.8-6.1,17.7-18.6,27.4l-11.5,8.9h24.6c3.7,0,6.8,3,6.8,6.8s-3,6.7-6.8,6.7h-38.4c-4.8,0-8.4-2.7-8.4-7.4
		C711.5,550,712.9,547.4,715.5,545.2z"/>
	<path class="st0" d="M781.9,545.2l20.1-16.5c8.8-7.2,12.2-11.1,12.2-17c0-6-3.9-9.2-9.5-9.2c-4.4,0-7.6,1.9-11.5,6.2
		c-1,1.1-2.8,2.2-5.2,2.2c-3.9,0-7.1-3.1-7.1-7.1c0-1.7,0.7-3.5,1.8-4.8c5.7-6.6,12.3-10.4,23-10.4c14.6,0,24.3,8.6,24.3,21.8v0.2
		c0,11.8-6.1,17.7-18.6,27.4l-11.5,8.9h24.6c3.7,0,6.8,3,6.8,6.8s-3,6.7-6.8,6.7h-38.4c-4.8,0-8.4-2.7-8.4-7.4
		C777.9,550,779.3,547.4,781.9,545.2z"/>
</g>
</svg>
