<?xml version="1.0" encoding="utf-8"?>
<!-- Generator: Adobe Illustrator 21.1.0, SVG Export Plug-In . SVG Version: 6.00 Build 0)  -->
<svg version="1.1" id="Capa_1" xmlns="http://www.w3.org/2000/svg" xmlns:xlink="http://www.w3.org/1999/xlink" x="0px" y="0px"
	 viewBox="0 0 400 400" style="enable-background:new 0 0 400 400;" xml:space="preserve">
<style type="text/css">
	.st0{opacity:0.7;}
	.st1{clip-path:url(#SVGID_2_);}
	.st2{fill:#FFFFFF;}
	.st3{clip-path:url(#SVGID_4_);fill:#FFFFFF;}
	.st4{fill:url(#SVGID_5_);}
	.st5{fill:url(#SVGID_6_);}
	.st6{fill:url(#SVGID_7_);}
	.st7{fill:url(#SVGID_8_);}
	.st8{fill:url(#SVGID_9_);}
	.st9{fill:url(#SVGID_10_);}
	.st10{fill:url(#SVGID_11_);}
	.st11{fill:url(#SVGID_12_);}
	.st12{fill:url(#SVGID_13_);}
	.st13{fill:url(#SVGID_14_);}
	.st14{fill:url(#SVGID_15_);}
	.st15{fill:url(#SVGID_16_);}
	.st16{fill:url(#SVGID_17_);}
	.st17{fill:url(#SVGID_18_);}
	.st18{fill:url(#SVGID_19_);}
	.st19{fill:url(#SVGID_20_);}
	.st20{fill:url(#SVGID_21_);}
	.st21{fill:url(#SVGID_22_);}
	.st22{fill:url(#SVGID_23_);}
	.st23{fill:url(#SVGID_24_);}
	.st24{fill:url(#SVGID_25_);}
	.st25{fill:url(#SVGID_26_);}
	.st26{fill:url(#SVGID_27_);}
	.st27{fill:url(#SVGID_28_);}
	.st28{fill:url(#SVGID_29_);}
	.st29{fill:url(#SVGID_30_);}
	.st30{fill:url(#SVGID_31_);}
	.st31{fill:url(#SVGID_32_);}
	.st32{fill:url(#SVGID_33_);}
	.st33{fill:url(#SVGID_34_);}
	.st34{fill:url(#SVGID_35_);}
	.st35{fill:url(#SVGID_36_);}
	.st36{fill:url(#SVGID_37_);}
	.st37{fill:url(#SVGID_38_);}
	.st38{fill:url(#SVGID_39_);}
	.st39{fill:url(#SVGID_40_);}
</style>
<g>
	
		<linearGradient id="SVGID_2_" gradientUnits="userSpaceOnUse" x1="26.2186" y1="196.4759" x2="337.8255" y2="196.4759" gradientTransform="matrix(1 0 0 1 22 0)">
		<stop  offset="0" style="stop-color:#B01A1A"/>
		<stop  offset="1" style="stop-color:#880508"/>
	</linearGradient>
	<path style="fill:url(#SVGID_2_);" d="M359.8,160.4c0-86-69.8-155.8-155.8-155.8c-86,0-155.8,69.8-155.8,155.8
		c0,73.9,51.5,135.8,120.5,151.8c2.2,16.9,12.8,51.8,60.9,76c0.9,0.4,1.1,0.1,0.7-0.7c-23-38.3-16.9-60.4-7.2-72.4
		C300.1,305.6,359.8,240,359.8,160.4z"/>
	
		<linearGradient id="SVGID_4_" gradientUnits="userSpaceOnUse" x1="29.6809" y1="194.1481" x2="334.3632" y2="194.1481" gradientTransform="matrix(1 0 0 1 22 0)">
		<stop  offset="0" style="stop-color:#880508"/>
		<stop  offset="1" style="stop-color:#B01A1A"/>
	</linearGradient>
	<path style="fill:url(#SVGID_4_);" d="M222.3,380.2c-38.4-22.6-47.9-52.2-50.1-68.5l-0.3-2.4l-2.3-0.5c-33-7.6-62.9-26.4-84.2-53
		c-21.7-26.9-33.6-60.8-33.6-95.4C51.7,76.4,120,8.1,204,8.1c84,0,152.3,68.3,152.3,152.3c0,76.9-57.5,141.9-133.7,151.2l-1.4,0.2
		l-0.9,1.1C211,324.4,204.2,345.3,222.3,380.2z"/>
</g>
<g>
	<path class="st2" d="M86.6,150.9c0-2.7,2.1-4.8,4.8-4.8h12.2c13.7,0,23.1,9.4,23.1,21.6v0.1c0,12.3-9.5,21.8-23.1,21.8H91.3
		c-2.7,0-4.8-2.1-4.8-4.8V150.9z M103.5,181c7.8,0,13.1-5.3,13.1-13v-0.1c0-7.7-5.3-13.1-13.1-13.1h-7.4V181H103.5z"/>
	<path class="st2" d="M134.1,148.3c0-2.7,2.3-4.4,5.3-4.4s5.3,1.7,5.3,4.4v0.1c0,2.7-2.3,4.5-5.3,4.5s-5.3-1.7-5.3-4.5V148.3z
		 M134.6,160.6c0-2.6,2.1-4.7,4.7-4.7c2.6,0,4.7,2.1,4.7,4.7v24.6c0,2.6-2.1,4.7-4.7,4.7c-2.6,0-4.7-2.1-4.7-4.7V160.6z"/>
	<path class="st2" d="M152.1,186.5c-1-0.6-1.8-1.7-1.8-3.2c0-2.1,1.6-3.7,3.7-3.7c0.7,0,1.4,0.2,1.9,0.5c3.2,2,6.3,3,9,3
		c2.7,0,4-1,4-2.5v-0.1c0-2.1-3.2-2.7-6.9-3.9c-4.7-1.4-10-3.5-10-10v-0.1c0-6.8,5.5-10.6,12.2-10.6c3.5,0,7.1,0.9,10.3,2.6
		c1.4,0.7,2.2,1.9,2.2,3.5c0,2.1-1.7,3.7-3.8,3.7c-0.7,0-1.1-0.1-1.7-0.4c-2.7-1.3-5.2-2.1-7.2-2.1c-2.3,0-3.5,1-3.5,2.3v0.1
		c0,1.9,3.2,2.7,6.8,4c4.7,1.6,10.1,3.8,10.1,9.9v0.1c0,7.4-5.5,10.8-12.8,10.8C160.6,190.3,156.2,189.1,152.1,186.5z"/>
	<path class="st2" d="M185.8,164.4h-0.4c-2.2,0-3.9-1.7-3.9-3.9s1.7-3.9,3.9-3.9h0.4v-2.1c0-3.7,0.9-6.3,2.7-8.1
		c1.7-1.7,4.3-2.6,7.7-2.6c1.5,0,2.8,0.1,3.9,0.2c1.6,0.2,3.2,1.7,3.2,3.8s-1.7,3.9-3.9,3.9h-0.8c-2.2,0-3.4,1.1-3.4,3.6v1.3h4.1
		c2.2,0,3.9,1.7,3.9,3.9s-1.7,3.9-3.9,3.9h-4v20.9c0,2.6-2.1,4.7-4.7,4.7c-2.6,0-4.7-2.1-4.7-4.7V164.4z"/>
	<path class="st2" d="M208,160.6c0-2.6,2.1-4.7,4.7-4.7c2.6,0,4.7,2.1,4.7,4.7v1.5c1.4-3.2,3.6-6.2,6.4-6.2c2.9,0,4.6,1.9,4.6,4.6
		c0,2.5-1.6,4-3.5,4.4c-4.8,1.1-7.5,4.8-7.5,11.5v8.8c0,2.6-2.1,4.7-4.7,4.7c-2.6,0-4.7-2.1-4.7-4.7V160.6z"/>
	<path class="st2" d="M264.3,185.3c0,2.6-2.1,4.7-4.7,4.7c-2.6,0-4.7-2.1-4.7-4.7v-0.4c-2.2,2.8-5,5.4-9.8,5.4
		c-7.2,0-11.3-4.7-11.3-12.4v-17.2c0-2.6,2.1-4.7,4.7-4.7c2.6,0,4.7,2.1,4.7,4.7v14.2c0,4.5,2.1,6.8,5.7,6.8c3.6,0,5.9-2.3,5.9-6.8
		v-14.2c0-2.6,2.1-4.7,4.7-4.7c2.6,0,4.7,2.1,4.7,4.7V185.3z"/>
	<path class="st2" d="M274.3,180.2v-15.8H274c-2.2,0-4-1.8-4-4c0-2.2,1.8-4,4-4h0.3v-4.2c0-2.6,2.1-4.7,4.7-4.7
		c2.6,0,4.7,2.1,4.7,4.7v4.2h4.2c2.2,0,4,1.8,4,4c0,2.2-1.8,4-4,4h-4.2v14.2c0,2.2,0.9,3.2,3,3.2c0.3,0,0.9-0.1,1.1-0.1
		c2.1,0,3.9,1.7,3.9,3.9c0,1.7-1.1,3-2.4,3.5c-1.7,0.7-3.4,0.9-5.4,0.9C278.2,190.2,274.3,187.9,274.3,180.2z"/>
	<path class="st2" d="M313.4,190.4c-10,0-17.4-7-17.4-17.2V173c0-9.5,6.8-17.4,16.5-17.4c11.1,0,16,9.1,16,16.1
		c0,2.7-1.9,4.5-4.4,4.5h-18.7c0.9,4.3,3.9,6.5,8.1,6.5c2.6,0,4.8-0.8,6.7-2.2c0.7-0.5,1.3-0.7,2.3-0.7c2.1,0,3.7,1.6,3.7,3.7
		c0,1.2-0.6,2.2-1.2,2.8C322.1,188.8,318.3,190.4,313.4,190.4z M319.5,170.3c-0.6-4.2-3-7.1-7-7.1c-3.9,0-6.5,2.8-7.2,7.1H319.5z"/>
</g>
</svg>
